<svg width="200" height="200" viewBox="0 0 200 200" fill="none" xmlns="http://www.w3.org/2000/svg">
<g clip-path="url(#clip0)">
<path d="M50.22 141C45.78 141 42.42 140.46 40.14 139.38C37.98 138.18 36.42 136.08 35.46 133.08C34.5 130.08 34.02 125.52 34.02 119.4V22.2H50.22V119.4C50.22 125.52 51.06 130.08 52.74 133.08C54.42 135.96 57.78 137.4 62.82 137.4H66.42V141H50.22Z" fill="#FB9F89"/>
<path d="M89.08 83.8C89.08 77.68 88.24 73.18 86.56 70.3C84.88 67.3 81.52 65.8 76.48 65.8H72.88V62.2H119.68C132.76 62.2 144.1 64.36 153.7 68.68C163.42 73 168.28 81.34 168.28 93.7C168.28 99.34 166.36 104.44 162.52 109C158.68 113.56 152.8 117.16 144.88 119.8C155.92 121.6 163.6 124.9 167.92 129.7C172.36 134.38 174.58 140.68 174.58 148.6C174.58 160.72 169.78 169.18 160.18 173.98C150.7 178.66 139 181 125.08 181H89.08V83.8ZM122.38 117.1C127.3 117.1 131.92 116.2 136.24 114.4C140.68 112.48 144.28 109.72 147.04 106.12C149.8 102.4 151.18 97.96 151.18 92.8C151.18 87.4 149.56 82.9 146.32 79.3C143.08 75.58 138.94 72.88 133.9 71.2C128.98 69.4 123.94 68.5 118.78 68.5C114.58 68.5 110.08 69.1 105.28 70.3V117.1H122.38ZM122.38 174.7C133.3 174.7 141.7 172.54 147.58 168.22C153.58 163.9 156.58 157.66 156.58 149.5C156.58 141.34 153.64 135.1 147.76 130.78C142 126.46 133.54 124.3 122.38 124.3H105.28V172.18C111.04 173.86 116.74 174.7 122.38 174.7Z" fill="#FB9F89"/>
</g>
<defs>
<clipPath id="clip0">
<rect width="200" height="200" fill="white"/>
</clipPath>
</defs>
</svg>
