<svg width="167" height="192" viewBox="0 0 167 192" fill="none" xmlns="http://www.w3.org/2000/svg">
<g clip-path="url(#clip0)">
<path d="M28.8 135C23.8667 135 20.1333 134.4 17.6 133.2C15.2 131.867 13.4667 129.533 12.4 126.2C11.3333 122.867 10.8 117.8 10.8 111V2.99999H28.8V111C28.8 117.8 29.7333 122.867 31.6 126.2C33.4667 129.4 37.2 131 42.8 131H46.8V135H28.8Z" fill="#FB9F89"/>
<path d="M62.2 79C62.2 72.2 61.2667 67.2 59.4 64C57.5333 60.6667 53.8 59 48.2 59H44.2V55H96.2C110.733 55 123.333 57.4 134 62.2C144.8 67 150.2 76.2667 150.2 90C150.2 96.2667 148.067 101.933 143.8 107C139.533 112.067 133 116.067 124.2 119C136.467 121 145 124.667 149.8 130C154.733 135.2 157.2 142.2 157.2 151C157.2 164.467 151.867 173.867 141.2 179.2C130.667 184.4 117.667 187 102.2 187H62.2V79ZM99.2 116C104.667 116 109.8 115 114.6 113C119.533 110.867 123.533 107.8 126.6 103.8C129.667 99.6667 131.2 94.7333 131.2 89C131.2 83 129.4 78 125.8 74C122.2 69.8667 117.6 66.8667 112 65C106.533 63 100.933 62 95.2 62C90.5333 62 85.5333 62.6667 80.2 64V116H99.2ZM99.2 180C111.333 180 120.667 177.6 127.2 172.8C133.867 168 137.2 161.067 137.2 152C137.2 142.933 133.933 136 127.4 131.2C121 126.4 111.6 124 99.2 124H80.2V177.2C86.6 179.067 92.9333 180 99.2 180Z" fill="#FB9F89"/>
</g>
<defs>
<clipPath id="clip0">
<rect width="167" height="192" fill="white"/>
</clipPath>
</defs>
</svg>
